<svg width="60" height="60" viewBox="0 0 60 60" fill="none" xmlns="http://www.w3.org/2000/svg">
<rect width="60" height="60" rx="30" fill="#FFF5E2"/>
<path d="M30 9.23077C18.5295 9.23077 9.23077 18.5295 9.23077 30C9.23077 30.9539 9.29508 31.8929 9.41961 32.8127H7.6741C7.55919 31.8913 7.5 30.9525 7.5 30C7.5 17.5736 17.5736 7.5 30 7.5C42.4264 7.5 52.5 17.5736 52.5 30C52.5 30.9525 52.4408 31.8913 52.3259 32.8127H50.5804C50.7049 31.8929 50.7692 30.9539 50.7692 30C50.7692 18.5295 41.4705 9.23077 30 9.23077Z" fill="#082830"/>
<path d="M9.79789 37.5764C9.79808 37.5763 9.79829 37.5761 9.23071 36.9228C8.66313 36.2696 8.66339 36.2693 8.66368 36.2691L8.66439 36.2685L8.66626 36.2669L8.67182 36.2621L8.69015 36.2464C8.70555 36.2334 8.72727 36.2151 8.75512 36.1921C8.81079 36.1461 8.891 36.0811 8.99407 36.0006C9.20009 35.8397 9.49815 35.6166 9.87484 35.3604C10.6264 34.8493 11.7006 34.2002 12.989 33.6521C15.5517 32.5619 19.0832 31.8248 22.5932 33.55C25.6872 35.0708 28.3073 35.6749 30.8164 35.6115C33.3341 35.5479 35.8111 34.8109 38.6213 33.5384C41.8086 32.095 45.0093 32.8393 47.3193 33.8596C48.4831 34.3737 49.4537 34.9714 50.1329 35.4396C50.4734 35.6743 50.743 35.878 50.9295 36.0249C51.0228 36.0983 51.0955 36.1577 51.1461 36.1997C51.1713 36.2208 51.1911 36.2375 51.2052 36.2494L51.2219 36.2638L51.2271 36.2683L51.2288 36.2698L51.2295 36.2704C51.2298 36.2706 51.23 36.2708 50.661 36.9228C50.092 37.5748 50.0922 37.575 50.0924 37.5752L50.0914 37.5743L50.0824 37.5666C50.0735 37.5591 50.0592 37.5469 50.0395 37.5306C50.0001 37.4978 49.9394 37.4482 49.8588 37.3847C49.6976 37.2578 49.4575 37.0761 49.1507 36.8646C48.5352 36.4404 47.6601 35.9023 46.6199 35.4428C44.5218 34.516 41.8812 33.9622 39.3353 35.115C36.4124 36.4386 33.697 37.2701 30.8601 37.3417C28.0147 37.4136 25.1179 36.7196 21.8297 35.1033C18.9575 33.6915 15.9987 34.2526 13.6665 35.2447C12.5076 35.7377 11.5332 36.3258 10.8481 36.7917C10.5064 37.024 10.2391 37.2243 10.0593 37.3647C9.96952 37.4348 9.90173 37.4899 9.85763 37.5263C9.83559 37.5445 9.81948 37.5581 9.80952 37.5665L9.79921 37.5753L9.79789 37.5764Z" fill="#082830"/>
<path d="M11.67 41.7454C11.6702 41.7453 11.6704 41.7451 11.1778 41.0336C10.6853 40.3221 10.6855 40.3219 10.6858 40.3217L10.6865 40.3212L10.6883 40.32L10.6934 40.3165L10.7098 40.3054C10.7234 40.2962 10.7424 40.2834 10.7667 40.2675C10.8151 40.2356 10.8846 40.1908 10.9734 40.1355C11.1511 40.0252 11.4073 39.8728 11.7303 39.6985C12.3751 39.3506 13.2937 38.9114 14.3928 38.5451C16.577 37.8171 19.5693 37.3469 22.5422 38.5762C27.7233 40.7186 32.7961 40.6274 38.3526 38.5646C41.4618 37.4103 44.1981 37.8624 46.14 38.5972C47.1085 38.9636 47.8838 39.4015 48.4196 39.7496C48.6881 39.9239 48.898 40.0768 49.0436 40.1885C49.1164 40.2444 49.1733 40.2901 49.2135 40.3232C49.2337 40.3397 49.2496 40.3531 49.2614 40.3631L49.2758 40.3754L49.2806 40.3795L49.2824 40.3811L49.2831 40.3818C49.2835 40.3821 49.2838 40.3823 48.7139 41.0336C48.144 41.6849 48.1443 41.6851 48.1446 41.6853L48.1413 41.6825C48.1363 41.6783 48.1272 41.6707 48.1143 41.66C48.0883 41.6387 48.0467 41.6051 47.99 41.5616C47.8766 41.4746 47.7036 41.3483 47.4768 41.201C47.0222 40.9057 46.3575 40.53 45.5275 40.216C43.8727 39.5898 41.579 39.213 38.955 40.1872C33.0451 42.3812 27.517 42.5062 21.8808 40.1756C19.445 39.1684 16.9205 39.527 14.94 40.187C13.9568 40.5147 13.1311 40.9093 12.5522 41.2217C12.2634 41.3775 12.0378 41.5119 11.8868 41.6057C11.8113 41.6526 11.7546 41.6893 11.718 41.7133C11.6997 41.7254 11.6865 41.7342 11.6785 41.7396L11.6705 41.7451L11.67 41.7454Z" fill="#082830"/>
<path d="M48.1457 41.6863C48.146 41.6866 48.1459 41.6865 48.1457 41.6863Z" fill="#082830"/>
<path d="M37.7472 45.1234C39.7728 44.0948 41.6435 44.2446 43.0307 44.6581C43.7276 44.8657 44.2972 45.1391 44.6904 45.3595C44.8864 45.4693 45.0367 45.5649 45.1351 45.6308C45.1842 45.6637 45.2202 45.6891 45.2423 45.705C45.2533 45.713 45.2609 45.7185 45.2648 45.7215L45.2664 45.7226C45.2661 45.7224 45.2658 45.7222 45.7929 45.0358C46.32 44.3495 46.3197 44.3493 46.3194 44.349L46.3186 44.3484L46.3168 44.3471L46.3121 44.3435L46.2984 44.3332C46.2873 44.325 46.2725 44.314 46.2539 44.3006C46.2167 44.2739 46.1646 44.2372 46.0984 44.1929C45.966 44.1042 45.7766 43.9842 45.5365 43.8496C45.0576 43.5812 44.3696 43.2511 43.5251 42.9994C41.8294 42.494 39.4813 42.3018 36.9636 43.5801C32.692 45.7491 26.5928 45.4543 22.5792 43.5685C20.2256 42.4627 17.9448 42.6622 16.2898 43.1159C15.4609 43.3431 14.7761 43.637 14.2965 43.8751C14.0561 43.9944 13.8656 44.1006 13.7324 44.1787C13.6657 44.2178 13.6133 44.25 13.576 44.2734C13.5573 44.2851 13.5424 44.2947 13.5315 44.3018L13.5179 44.3106L13.5133 44.3136L13.5116 44.3148L13.5109 44.3152C13.5106 44.3155 13.5102 44.3157 13.99 45.0359C14.4698 45.7561 14.4695 45.7563 14.4693 45.7564L14.4718 45.7548C14.4762 45.7519 14.4844 45.7467 14.496 45.7394C14.5194 45.7247 14.5571 45.7015 14.6081 45.6716C14.7103 45.6117 14.8654 45.525 15.0661 45.4253C15.4688 45.2254 16.0483 44.9767 16.7473 44.7851C18.1482 44.4011 19.978 44.2586 21.8432 45.135C26.267 47.2136 32.9323 47.5682 37.7472 45.1234Z" fill="#082830"/>
<path d="M21.1655 48.9808C20.3954 48.8099 19.491 48.7726 18.274 49.021L17.9279 47.3252C19.3611 47.0327 20.5121 47.063 21.5403 47.2911C22.5505 47.5151 23.4053 47.9241 24.2107 48.3134L24.295 48.3542C25.8555 49.1089 27.4818 49.8955 30.5125 49.7962C33.546 49.6967 34.9325 48.9599 36.1787 48.2976L36.274 48.247C36.9345 47.8965 37.6405 47.5269 38.5316 47.3228C39.4332 47.1163 40.4706 47.0889 41.8279 47.32L41.5375 49.0262C40.3527 48.8246 39.5512 48.8648 38.918 49.0099C38.2744 49.1573 37.7499 49.4232 37.0853 49.7759L37.019 49.8111C35.6536 50.536 34.0009 51.4135 30.5692 51.526C27.1125 51.6393 25.1789 50.7042 23.5378 49.9106L23.4575 49.8717C22.6403 49.4767 21.9536 49.1556 21.1655 48.9808Z" fill="#082830"/>
<circle cx="29.9965" cy="29.5678" r="5.40865" fill="#9F7C00"/>
</svg>
