<svg width="24" height="24" viewBox="0 0 24 24" fill="none" xmlns="http://www.w3.org/2000/svg">
<path d="M9.70939 3.38642C8.74342 4.7042 9.01812 6.56333 10.3229 7.53889C11.6278 8.51446 13.4686 8.23704 14.4346 6.91926C15.4005 5.60148 15.1258 3.74235 13.821 2.76679C12.5162 1.79122 10.6754 2.06864 9.70939 3.38642Z" stroke="#082830" stroke-width="1.5" stroke-linecap="round" stroke-linejoin="round"/>
<path d="M12.0535 21.6619L12.0535 8.29515" stroke="#082830" stroke-width="1.5" stroke-linecap="round" stroke-linejoin="round"/>
<path d="M17.0337 5.53617C16.258 6.59434 16.4786 8.08721 17.5263 8.87058C18.5741 9.65395 20.0523 9.43119 20.828 8.37302C21.6036 7.31485 21.383 5.82198 20.3353 5.03861C19.2875 4.25524 17.8093 4.478 17.0337 5.53617Z" stroke="#082830" stroke-width="1.5" stroke-linecap="round" stroke-linejoin="round"/>
<path d="M3.20165 5.53617C2.42598 6.59434 2.64656 8.08721 3.69432 8.87058C4.74208 9.65395 6.22026 9.43119 6.99592 8.37302C7.77159 7.31485 7.55101 5.82198 6.50325 5.03861C5.45549 4.25524 3.97731 4.478 3.20165 5.53617Z" stroke="#082830" stroke-width="1.5" stroke-linecap="round" stroke-linejoin="round"/>
<path d="M18.9167 20.2104L18.9176 9.63275" stroke="#082830" stroke-width="1.5" stroke-linecap="round" stroke-linejoin="round"/>
<path d="M5.07898 20.2145L5.07891 9.62802" stroke="#082830" stroke-width="1.5" stroke-linecap="round" stroke-linejoin="round"/>
</svg>
