<svg width="707" height="176" viewBox="0 0 707 176" fill="none" xmlns="http://www.w3.org/2000/svg">
<path d="M202.607 25.1888H276.5V39.5056H246.635V136.49H231.702V39.5056H202.607V25.1888ZM315.61 25.1888H330.543V136.49H315.61V25.1888ZM377.909 136.49V25.1888H408.236C419.218 25.1888 428.557 26.8822 436.254 30.2689C444.054 33.6557 450.314 38.1201 455.035 43.6621C459.756 49.2041 463.194 55.3618 465.35 62.1353C467.607 68.8062 468.736 75.4771 468.736 82.148C468.736 90.5636 467.248 98.1069 464.272 104.778C461.398 111.449 457.396 117.145 452.264 121.866C447.133 126.587 441.232 130.23 434.561 132.796C427.992 135.259 421.014 136.49 413.624 136.49H377.909ZM392.842 122.173H410.699C416.857 122.173 422.502 121.25 427.633 119.402C432.867 117.555 437.383 114.887 441.18 111.397C445.08 107.908 448.108 103.649 450.263 98.62C452.418 93.4886 453.496 87.69 453.496 81.2244C453.496 74.3482 452.367 68.3444 450.109 63.2129C447.851 57.9789 444.772 53.6171 440.872 50.1277C436.973 46.6383 432.559 44.0213 427.633 42.2766C422.707 40.4292 417.524 39.5056 412.085 39.5056H392.842V122.173ZM492.115 136.49L540.762 20.5705H541.685L590.178 136.49H573.09L536.759 43.97L547.381 37.0425L506.74 136.49H492.115ZM520.595 94.3096H562.006L566.932 107.241H516.284L520.595 94.3096ZM626.535 25.1888H641.467V122.173H697.965V136.49H626.535V25.1888Z" fill="#FFF5E2"/>
<path d="M80.6996 7.00844C40.0507 7.00844 7.09829 39.9609 7.09829 80.6097C7.09829 83.9903 7.3262 87.3177 7.7675 90.5772H1.58181C1.17461 87.312 0.964844 83.9853 0.964844 80.6097C0.964844 36.5735 36.6633 0.875 80.6996 0.875C124.736 0.875 160.434 36.5735 160.434 80.6097C160.434 83.9853 160.225 87.312 159.817 90.5772H153.632C154.073 87.3177 154.301 83.9903 154.301 80.6097C154.301 39.9609 121.348 7.00844 80.6996 7.00844Z" fill="#FFF5E2"/>
<path d="M9.10881 107.459C9.10881 107.459 9.11024 107.458 7.09886 105.143C5.08748 102.828 5.08945 102.826 5.08945 102.826L5.09195 102.824L5.09859 102.818L5.11829 102.801L5.18325 102.746C5.23781 102.7 5.3148 102.635 5.41347 102.553C5.61077 102.39 5.89501 102.16 6.26026 101.875C6.99035 101.304 8.0466 100.514 9.38151 99.6061C12.045 97.7949 15.8514 95.4944 20.4174 93.552C29.4988 89.6886 42.0139 87.0766 54.4525 93.1905C65.4169 98.5798 74.7019 100.72 83.5936 100.496C92.5157 100.271 101.293 97.6588 111.252 93.1491C122.547 88.0343 133.89 90.6717 142.076 94.2875C146.2 96.1094 149.64 98.2274 152.047 99.8866C153.253 100.718 154.209 101.44 154.87 101.961C155.2 102.221 155.458 102.431 155.637 102.58C155.727 102.655 155.797 102.714 155.846 102.757L155.906 102.808L155.924 102.823L155.933 102.831C155.933 102.831 155.935 102.832 153.918 105.143C151.902 107.453 151.903 107.455 151.903 107.455L151.9 107.452L151.868 107.424C151.836 107.398 151.785 107.355 151.716 107.297C151.576 107.18 151.361 107.005 151.075 106.78C150.504 106.33 149.653 105.686 148.566 104.937C146.385 103.433 143.284 101.526 139.598 99.898C132.162 96.6137 122.804 94.6509 113.782 98.7364C103.424 103.427 93.8018 106.373 83.7485 106.627C73.6649 106.882 63.3995 104.423 51.7469 98.695C41.5684 93.692 31.083 95.6801 22.8184 99.196C18.7112 100.943 15.2582 103.027 12.8304 104.678C11.6197 105.501 10.6724 106.211 10.0354 106.709C9.71703 106.957 9.4768 107.152 9.32052 107.281C9.2424 107.346 9.18532 107.394 9.15001 107.424L9.1135 107.455L9.10881 107.459Z" fill="#FFF5E2"/>
<path d="M15.7431 122.233C15.7431 122.233 15.7447 122.232 13.999 119.71C12.2534 117.189 12.2554 117.188 12.2554 117.188L12.2579 117.186L12.2642 117.182L12.2823 117.169L12.3403 117.13C12.3886 117.097 12.456 117.052 12.5419 116.995C12.7137 116.882 12.9597 116.724 13.2747 116.528C13.9044 116.137 14.8121 115.597 15.9569 114.979C18.2419 113.746 21.4971 112.19 25.3921 110.892C33.1324 108.312 43.7366 106.646 54.2716 111.002C72.6324 118.594 90.6093 118.271 110.3 110.961C121.318 106.87 131.015 108.473 137.897 111.076C141.329 112.375 144.076 113.927 145.975 115.16C146.927 115.778 147.67 116.32 148.186 116.716C148.444 116.914 148.646 117.076 148.789 117.193C148.86 117.252 148.917 117.299 148.958 117.334L149.009 117.378L149.026 117.393L149.033 117.398L149.035 117.401C149.035 117.401 149.038 117.403 147.018 119.71C144.999 122.018 145.001 122.02 145.001 122.02L144.989 122.01C144.971 121.995 144.939 121.968 144.893 121.93C144.801 121.855 144.654 121.736 144.453 121.582C144.051 121.273 143.438 120.826 142.634 120.304C141.023 119.257 138.667 117.926 135.726 116.813C129.862 114.594 121.734 113.259 112.435 116.711C91.4916 124.486 71.9011 124.929 51.9279 116.67C43.2959 113.101 34.3497 114.371 27.3314 116.71C23.8472 117.872 20.9209 119.27 18.8694 120.377C17.846 120.929 17.0466 121.405 16.5113 121.738C16.2438 121.904 16.0428 122.034 15.9132 122.119L15.8662 122.15L15.823 122.179L15.7733 122.212L15.7448 122.232L15.7431 122.233Z" fill="#FFF5E2"/>
<path d="M108.155 134.204C115.333 130.559 121.962 131.09 126.878 132.555C129.348 133.291 131.366 134.26 132.76 135.04C133.454 135.43 133.987 135.768 134.336 136.002C134.51 136.119 134.637 136.208 134.715 136.265L134.749 136.289L134.774 136.307L134.795 136.323L134.801 136.327C134.801 136.327 134.799 136.326 136.667 133.894C138.535 131.461 138.532 131.46 138.532 131.46L138.523 131.453L138.507 131.44L138.458 131.404C138.438 131.389 138.415 131.371 138.388 131.352C138.362 131.333 138.333 131.311 138.3 131.288C138.169 131.193 137.984 131.063 137.749 130.906C137.28 130.592 136.609 130.167 135.758 129.69C134.061 128.739 131.623 127.569 128.63 126.677C122.621 124.886 114.3 124.205 105.378 128.735C90.2402 136.421 68.6262 135.377 54.4028 128.694C46.0623 124.775 37.9796 125.482 32.1147 127.09C29.1772 127.895 26.7505 128.936 25.0509 129.78C24.199 130.203 23.5237 130.579 23.0517 130.856C22.8155 130.995 22.6296 131.109 22.4975 131.192C22.4314 131.233 22.3786 131.267 22.3397 131.292L22.2916 131.323L22.2754 131.334L22.2693 131.338L22.2668 131.34C22.2668 131.34 22.2645 131.341 23.9648 133.894C25.6651 136.446 25.6631 136.447 25.6631 136.447L25.6722 136.441C25.6878 136.431 25.7166 136.413 25.758 136.387C25.8409 136.335 25.9744 136.253 26.1552 136.146C26.5172 135.934 27.0668 135.627 27.7782 135.274C29.2052 134.565 31.2588 133.684 33.7361 133.005C38.7005 131.644 45.1847 131.139 51.7945 134.245C67.4716 141.611 91.0918 142.867 108.155 134.204Z" fill="#FFF5E2"/>
<path d="M49.393 147.873C46.6637 147.268 43.459 147.136 39.1461 148.016L37.9197 142.006C42.9986 140.97 47.0773 141.077 50.7211 141.885C54.3012 142.68 57.3303 144.129 60.1845 145.508L60.4832 145.653C66.0132 148.328 71.7766 151.115 82.5165 150.763C93.2665 150.41 98.18 147.799 102.596 145.453L102.934 145.273C105.275 144.031 107.777 142.721 110.934 141.998C114.129 141.266 117.806 141.169 122.616 141.988L121.586 148.034C117.388 147.32 114.548 147.463 112.304 147.977C110.023 148.499 108.164 149.441 105.809 150.691L105.574 150.816C100.735 153.385 94.8788 156.494 82.7175 156.893C70.4676 157.295 63.6157 153.981 57.8 151.168L57.5154 151.031C54.6195 149.631 52.1859 148.493 49.393 147.873Z" fill="#FFF5E2"/>
<circle cx="80.7002" cy="79.0762" r="19.167" fill="#AEEABB"/>
</svg>
