<svg width="707" height="176" viewBox="0 0 707 176" fill="none" xmlns="http://www.w3.org/2000/svg">
<path d="M202.613 24.887H276.506V39.2038H246.641V136.188H231.708V39.2038H202.613V24.887ZM315.616 24.887H330.549V136.188H315.616V24.887ZM377.915 136.188V24.887H408.242C419.224 24.887 428.563 26.5804 436.26 29.9672C444.06 33.354 450.32 37.8183 455.041 43.3603C459.762 48.9023 463.2 55.06 465.355 61.8336C467.613 68.5045 468.742 75.1754 468.742 81.8463C468.742 90.2619 467.254 97.8051 464.278 104.476C461.404 111.147 457.402 116.843 452.27 121.564C447.139 126.285 441.238 129.928 434.567 132.494C427.998 134.957 421.02 136.188 413.63 136.188H377.915ZM392.848 121.872H410.705C416.863 121.872 422.508 120.948 427.639 119.101C432.873 117.253 437.389 114.585 441.186 111.096C445.086 107.606 448.114 103.347 450.269 98.3183C452.424 93.1868 453.502 87.3883 453.502 80.9226C453.502 74.0465 452.373 68.0426 450.115 62.9112C447.857 57.6771 444.778 53.3154 440.878 49.826C436.978 46.3366 432.565 43.7195 427.639 41.9748C422.713 40.1275 417.53 39.2038 412.091 39.2038H392.848V121.872ZM492.121 136.188L540.767 20.2687H541.691L590.183 136.188H573.096L536.765 43.6682L547.387 36.7407L506.746 136.188H492.121ZM520.601 94.0079H562.012L566.938 106.939H516.29L520.601 94.0079ZM626.541 24.887H641.473V121.872H697.971V136.188H626.541V24.887Z" fill="#082830"/>
<path d="M80.7045 6.70473C40.0556 6.70473 7.10317 39.6572 7.10317 80.306C7.10317 83.6866 7.33108 87.014 7.77238 90.2735H1.58669C1.17949 87.0082 0.969727 83.6816 0.969727 80.306C0.969727 36.2698 36.6682 0.571289 80.7045 0.571289C124.741 0.571289 160.439 36.2698 160.439 80.306C160.439 83.6816 160.229 87.0082 159.822 90.2735H153.637C154.078 87.014 154.306 83.6866 154.306 80.306C154.306 39.6572 121.353 6.70473 80.7045 6.70473Z" fill="#082830"/>
<path d="M9.11377 107.156C9.11377 107.156 9.1152 107.155 7.10383 104.84C5.09245 102.525 5.09441 102.523 5.09441 102.523L5.09692 102.521L5.10355 102.515L5.12326 102.498L5.18822 102.443C5.24278 102.397 5.31976 102.332 5.41843 102.25C5.61573 102.087 5.89997 101.857 6.26522 101.572C6.99532 101.001 8.05156 100.211 9.38648 99.3031C12.05 97.4919 15.8564 95.1914 20.4223 93.249C29.5038 89.3856 42.0188 86.7736 54.4574 92.8875C65.4219 98.2768 74.7069 100.417 83.5986 100.193C92.5207 99.9676 101.298 97.3558 111.257 92.8461C122.552 87.7313 133.895 90.3687 142.081 93.9845C146.205 95.8064 149.645 97.9244 152.052 99.5836C153.258 100.415 154.214 101.137 154.875 101.658C155.205 101.918 155.463 102.128 155.642 102.277C155.732 102.352 155.802 102.411 155.851 102.454L155.911 102.505L155.929 102.52L155.938 102.528C155.938 102.528 155.94 102.529 153.923 104.84C151.907 107.15 151.908 107.152 151.908 107.152L151.905 107.149L151.873 107.121C151.841 107.095 151.79 107.052 151.721 106.994C151.581 106.877 151.366 106.702 151.08 106.477C150.509 106.027 149.658 105.383 148.571 104.634C146.39 103.13 143.289 101.223 139.602 99.595C132.167 96.3107 122.809 94.3479 113.787 98.4334C103.429 103.124 93.8067 106.07 83.7534 106.324C73.6698 106.579 63.4045 104.119 51.7519 98.3919C41.5734 93.389 31.088 95.377 22.8233 98.893C18.7162 100.64 15.2631 102.724 12.8354 104.375C11.6247 105.198 10.6774 105.908 10.0403 106.406C9.722 106.654 9.48176 106.849 9.32548 106.978C9.24736 107.043 9.19028 107.091 9.15498 107.121L9.11846 107.152L9.11377 107.156Z" fill="#082830"/>
<path d="M15.7481 121.93C15.7481 121.93 15.7496 121.929 14.004 119.407C12.2584 116.886 12.2604 116.885 12.2604 116.885L12.2629 116.883L12.2692 116.879L12.2873 116.866L12.3453 116.827C12.3936 116.794 12.461 116.749 12.5469 116.692C12.7187 116.579 12.9646 116.421 13.2797 116.225C13.9094 115.834 14.817 115.294 15.9619 114.676C18.2469 113.443 21.502 111.887 25.3971 110.589C33.1374 108.009 43.7416 106.343 54.2766 110.699C72.6374 118.291 90.6142 117.968 110.305 110.658C121.323 106.567 131.02 108.17 137.902 110.773C141.334 112.072 144.081 113.624 145.98 114.857C146.932 115.475 147.675 116.017 148.191 116.413C148.449 116.611 148.651 116.773 148.794 116.89C148.865 116.949 148.922 116.996 148.963 117.031L149.014 117.075L149.031 117.09L149.038 117.095L149.04 117.098C149.04 117.098 149.043 117.1 147.023 119.407C145.004 121.715 145.006 121.717 145.006 121.717L144.994 121.707C144.976 121.692 144.944 121.665 144.898 121.627C144.806 121.552 144.659 121.433 144.458 121.279C144.056 120.97 143.443 120.523 142.639 120.001C141.028 118.954 138.672 117.623 135.731 116.51C129.867 114.291 121.739 112.956 112.44 116.408C91.4966 124.183 71.9061 124.626 51.9328 116.367C43.3009 112.798 34.3547 114.068 27.3364 116.407C23.8521 117.569 20.9259 118.967 18.8744 120.074C17.851 120.626 17.0516 121.102 16.5163 121.435C16.2488 121.601 16.0478 121.731 15.9182 121.816C15.8534 121.859 15.8066 121.89 15.7783 121.909L15.7498 121.929L15.7481 121.93Z" fill="#082830"/>
<path d="M108.16 133.901C115.338 130.256 121.967 130.787 126.883 132.252C129.353 132.988 131.371 133.957 132.765 134.737C133.459 135.127 133.992 135.465 134.34 135.699C134.515 135.816 134.642 135.905 134.72 135.962C134.76 135.99 134.786 136.01 134.8 136.02L134.806 136.024C134.806 136.024 134.804 136.023 136.672 133.591C138.54 131.158 138.537 131.157 138.537 131.157L138.535 131.154L138.528 131.15L138.512 131.137L138.463 131.1C138.424 131.071 138.371 131.033 138.305 130.985C138.174 130.89 137.989 130.76 137.754 130.603C137.285 130.289 136.614 129.864 135.763 129.387C134.066 128.436 131.628 127.266 128.635 126.374C122.626 124.583 114.305 123.902 105.383 128.432C90.2451 136.118 68.6311 135.074 54.4077 128.391C46.0673 124.472 37.9846 125.179 32.1196 126.787C29.1822 127.592 26.7555 128.633 25.0559 129.477C24.204 129.9 23.5287 130.276 23.0566 130.553C22.8204 130.692 22.6346 130.806 22.5024 130.889C22.4546 130.919 22.4138 130.945 22.3801 130.966L22.3446 130.989L22.2966 131.02L22.2804 131.031L22.2743 131.035L22.2717 131.037C22.2717 131.037 22.2695 131.038 23.9698 133.591C25.67 136.143 25.6681 136.144 25.6681 136.144L25.6771 136.138C25.6928 136.128 25.7215 136.11 25.763 136.084C25.8458 136.032 25.9793 135.95 26.1602 135.843C26.5222 135.631 27.0718 135.324 27.7832 134.971C29.2102 134.262 31.2638 133.381 33.741 132.702C38.7054 131.341 45.1897 130.836 51.7995 133.942C67.4766 141.308 91.0968 142.564 108.16 133.901Z" fill="#082830"/>
<path d="M49.3979 147.57C46.6687 146.965 43.464 146.833 39.1511 147.713L37.9246 141.703C43.0036 140.667 47.0823 140.774 50.7261 141.582C54.3062 142.377 57.3352 143.826 60.1894 145.205L60.4882 145.35C66.0182 148.025 71.7815 150.812 82.5215 150.46C93.2715 150.107 98.1849 147.496 102.601 145.15L102.939 144.97C105.28 143.728 107.782 142.418 110.939 141.695C114.134 140.963 117.811 140.866 122.621 141.685L121.591 147.731C117.393 147.017 114.552 147.16 112.309 147.674C110.028 148.196 108.169 149.138 105.814 150.388L105.579 150.513C100.74 153.082 94.8838 156.191 82.7225 156.59C70.4726 156.992 63.6206 153.678 57.805 150.865L57.5203 150.728C54.6244 149.328 52.1909 148.19 49.3979 147.57Z" fill="#082830"/>
<circle cx="80.7051" cy="78.7744" r="19.167" fill="#9F7C00"/>
</svg>
