<svg width="198" height="89" viewBox="0 0 198 89" fill="none" xmlns="http://www.w3.org/2000/svg">
<path d="M3 20.9998C3 20.9998 33.5 -5.50022 63 8.99978C92.5 23.4998 114 20.9998 140.5 8.99978C167 -3.00023 194.5 20.9998 194.5 20.9998" stroke="#B6C6CB" stroke-width="8"/>
<path d="M12 40.0002C12 40.0002 38 22.0002 63 32.3379C88 42.6757 112.5 42.176 139 32.3379C165.5 22.4999 185.5 40.0002 185.5 40.0002" stroke="#B6C6CB" stroke-width="8"/>
<path d="M25 58.4995C25 58.4995 43.5 46.175 63 55.3372C82.5 64.4995 112 66.0002 133 55.3373C154 44.6744 172 58.4994 172 58.4994" stroke="#B6C6CB" stroke-width="8"/>
<path d="M44 73C68.5 68 71 85.5 101.5 84.5C132 83.5 129.5 69 153 73" stroke="#B6C6CB" stroke-width="8"/>
</svg>
