<svg width="3173" height="534" viewBox="0 0 3173 534" fill="none" xmlns="http://www.w3.org/2000/svg">
<path d="M15 117.347C15 117.347 182.232 -27.5753 343.982 51.7216C505.731 131.018 623.616 117.347 768.916 51.7216C914.217 -13.9034 1065 117.347 1065 117.347" stroke="#C8B1A4" stroke-width="43.75"/>
<path d="M15 221.253C15 221.253 182.232 76.331 343.982 155.628C505.731 234.925 623.616 221.253 768.916 155.628C914.217 90.0028 1065 221.253 1065 221.253" stroke="#C8B1A4" stroke-width="43.75"/>
<path d="M15 325.159C15 325.159 182.232 180.237 343.982 259.534C505.731 338.831 623.616 325.159 768.916 259.534C914.217 193.909 1065 325.159 1065 325.159" stroke="#C8B1A4" stroke-width="43.75"/>
<path d="M15 429.065C15 429.065 182.232 284.143 343.982 363.44C505.731 442.737 623.616 429.065 768.916 363.44C914.217 297.815 1065 429.065 1065 429.065" stroke="#C8B1A4" stroke-width="43.75"/>
<path d="M2108 111.347C2108 111.347 2275.23 -33.5753 2436.98 45.7216C2598.73 125.018 2716.62 111.347 2861.92 45.7216C3007.22 -19.9034 3158 111.347 3158 111.347" stroke="#C8B1A4" stroke-width="43.75"/>
<path d="M2108 215.253C2108 215.253 2275.23 70.331 2436.98 149.628C2598.73 228.925 2716.62 215.253 2861.92 149.628C3007.22 84.0028 3158 215.253 3158 215.253" stroke="#C8B1A4" stroke-width="43.75"/>
<path d="M2108 319.159C2108 319.159 2275.23 174.237 2436.98 253.534C2598.73 332.831 2716.62 319.159 2861.92 253.534C3007.22 187.909 3158 319.159 3158 319.159" stroke="#C8B1A4" stroke-width="43.75"/>
<path d="M2108 423.065C2108 423.065 2275.23 278.143 2436.98 357.44C2598.73 436.737 2716.62 423.065 2861.92 357.44C3007.22 291.815 3158 423.065 3158 423.065" stroke="#C8B1A4" stroke-width="43.75"/>
<path d="M2108 422.719C2108 422.719 1940.77 567.641 1779.02 488.344C1617.27 409.047 1499.38 422.719 1354.08 488.344C1208.78 553.969 1058 422.719 1058 422.719" stroke="#C8B1A4" stroke-width="43.75"/>
<path d="M2108 318.813C2108 318.813 1940.77 463.734 1779.02 384.438C1617.27 305.141 1499.38 318.813 1354.08 384.438C1208.78 450.063 1058 318.813 1058 318.813" stroke="#C8B1A4" stroke-width="43.75"/>
<path d="M2108 214.906C2108 214.906 1940.77 359.828 1779.02 280.531C1617.27 201.234 1499.38 214.906 1354.08 280.531C1208.78 346.156 1058 214.906 1058 214.906" stroke="#C8B1A4" stroke-width="43.75"/>
<path d="M2108 111C2108 111 1940.77 255.922 1779.02 176.625C1617.27 97.3282 1499.38 111 1354.08 176.625C1208.78 242.25 1058 111 1058 111" stroke="#C8B1A4" stroke-width="43.75"/>
</svg>
