<svg width="1080" height="440" viewBox="0 0 1080 440" fill="none" xmlns="http://www.w3.org/2000/svg">
<path d="M15 111.347C15 111.347 182.232 -33.5753 343.982 45.7216C505.731 125.018 623.616 111.347 768.916 45.7216C914.217 -19.9034 1065 111.347 1065 111.347" stroke="#C8B1A4" stroke-width="43.75"/>
<path d="M15 215.253C15 215.253 182.232 70.331 343.982 149.628C505.731 228.925 623.616 215.253 768.916 149.628C914.217 84.0028 1065 215.253 1065 215.253" stroke="#C8B1A4" stroke-width="43.75"/>
<path d="M15 319.159C15 319.159 182.232 174.237 343.982 253.534C505.731 332.831 623.616 319.159 768.916 253.534C914.217 187.909 1065 319.159 1065 319.159" stroke="#C8B1A4" stroke-width="43.75"/>
<path d="M15 423.065C15 423.065 182.232 278.143 343.982 357.44C505.731 436.737 623.616 423.065 768.916 357.44C914.217 291.815 1065 423.065 1065 423.065" stroke="#C8B1A4" stroke-width="43.75"/>
</svg>


