<svg width="2000" height="1000" viewBox="0 0 2000 1000" fill="none" xmlns="http://www.w3.org/2000/svg">
<g clip-path="url(#clip0_863_255)">
<path d="M-227.941 375.796C-227.941 375.796 51.9216 321.499 181.048 514.171C310.174 706.843 450.379 767.424 654.65 787.605C858.92 807.785 942.314 1051.44 942.314 1051.44" stroke="#FFF5E2" stroke-width="56.3039"/>
<path d="M-294.96 491.882C-294.96 491.882 -15.0979 437.584 114.028 630.256C243.155 822.928 383.36 883.51 587.63 903.69C791.901 923.871 875.294 1167.53 875.294 1167.53" stroke="#FFF5E2" stroke-width="56.3039"/>
<path d="M-361.984 607.967C-361.984 607.967 -82.1213 553.67 47.005 746.342C176.131 939.014 316.336 999.595 520.607 1019.78C724.877 1039.96 808.271 1283.61 808.271 1283.61" stroke="#FFF5E2" stroke-width="56.3039"/>
<path d="M-429.005 724.051C-429.005 724.051 -149.143 669.753 -20.0165 862.425C109.11 1055.1 249.315 1115.68 453.585 1135.86C657.856 1156.04 741.249 1399.7 741.249 1399.7" stroke="#FFF5E2" stroke-width="56.3039"/>
<circle cx="1621.5" cy="500.5" r="189.5" fill="#9F7C00"/>
<path d="M1605.14 437.436C1598.1 447.046 1600.1 460.604 1609.62 467.718C1619.13 474.832 1632.56 472.809 1639.6 463.199C1646.64 453.589 1644.64 440.032 1635.13 432.917C1625.61 425.803 1612.19 427.826 1605.14 437.436Z" stroke="#FFF5E2" stroke-width="10.9388" stroke-linecap="round" stroke-linejoin="round"/>
<path d="M1622.24 570.71L1622.24 473.233" stroke="#FFF5E2" stroke-width="10.9388" stroke-linecap="round" stroke-linejoin="round"/>
<path d="M1658.55 453.113C1652.9 460.829 1654.51 471.716 1662.15 477.429C1669.79 483.142 1680.57 481.517 1686.22 473.801C1691.88 466.084 1690.27 455.197 1682.63 449.484C1674.99 443.771 1664.21 445.396 1658.55 453.113Z" stroke="#FFF5E2" stroke-width="10.9388" stroke-linecap="round" stroke-linejoin="round"/>
<path d="M1557.68 453.113C1552.03 460.829 1553.64 471.716 1561.28 477.429C1568.92 483.142 1579.7 481.517 1585.35 473.801C1591.01 466.084 1589.4 455.197 1581.76 449.484C1574.12 443.771 1563.34 445.396 1557.68 453.113Z" stroke="#FFF5E2" stroke-width="10.9388" stroke-linecap="round" stroke-linejoin="round"/>
<path d="M1672.29 560.125L1672.29 482.987" stroke="#FFF5E2" stroke-width="10.9388" stroke-linecap="round" stroke-linejoin="round"/>
<path d="M1571.38 560.155L1571.37 482.953" stroke="#FFF5E2" stroke-width="10.9388" stroke-linecap="round" stroke-linejoin="round"/>
</g>
<defs>
<clipPath id="clip0_863_255">
<rect width="2000" height="1000" fill="white"/>
</clipPath>
</defs>
</svg>
