<svg width="2000" height="1000" viewBox="0 0 2000 1000" fill="none" xmlns="http://www.w3.org/2000/svg">
<g clip-path="url(#clip0_887_366)">
<path d="M-227.943 375.796C-227.943 375.796 51.9197 321.499 181.046 514.171C310.172 706.843 450.377 767.424 654.648 787.605C858.918 807.785 942.312 1051.44 942.312 1051.44" stroke="#C8B1A4" stroke-width="56.3039"/>
<path d="M-294.962 491.882C-294.962 491.882 -15.0999 437.584 114.026 630.256C243.153 822.928 383.358 883.51 587.628 903.69C791.899 923.871 875.292 1167.53 875.292 1167.53" stroke="#C8B1A4" stroke-width="56.3039"/>
<path d="M-361.986 607.967C-361.986 607.967 -82.1233 553.67 47.0031 746.342C176.129 939.014 316.334 999.595 520.605 1019.78C724.875 1039.96 808.269 1283.61 808.269 1283.61" stroke="#C8B1A4" stroke-width="56.3039"/>
<path d="M-429.009 724.051C-429.009 724.051 -149.147 669.753 -20.0204 862.425C109.106 1055.1 249.311 1115.68 453.581 1135.86C657.852 1156.04 741.245 1399.7 741.245 1399.7" stroke="#C8B1A4" stroke-width="56.3039"/>
<circle cx="1621.5" cy="500.5" r="189.5" fill="#AEEABB"/>
<path d="M1687.98 475.277V525.13C1687.98 533.293 1683.61 540.873 1676.54 545.027L1633.24 570.027C1626.17 574.108 1617.43 574.108 1610.28 570.027L1566.99 545.027C1559.92 540.946 1555.55 533.365 1555.55 525.13V475.277C1555.55 467.114 1559.92 459.533 1566.99 455.379L1610.28 430.38C1617.35 426.298 1626.1 426.298 1633.24 430.38L1676.54 455.379C1683.61 459.533 1687.98 467.041 1687.98 475.277Z" stroke="#082830" stroke-width="10.9327" stroke-linecap="round" stroke-linejoin="round"/>
<path d="M1621.81 492.913C1631.19 492.913 1638.79 485.31 1638.79 475.931C1638.79 466.552 1631.19 458.949 1621.81 458.949C1612.43 458.949 1604.83 466.552 1604.83 475.931C1604.83 485.31 1612.43 492.913 1621.81 492.913Z" stroke="#082830" stroke-width="10.9327" stroke-linecap="round" stroke-linejoin="round"/>
<path d="M1650.95 534.166C1650.95 521.047 1637.91 510.406 1621.8 510.406C1605.69 510.406 1592.64 521.047 1592.64 534.166" stroke="#082830" stroke-width="10.9327" stroke-linecap="round" stroke-linejoin="round"/>
</g>
<defs>
<clipPath id="clip0_887_366">
<rect width="2000" height="1000" fill="white"/>
</clipPath>
</defs>
</svg>
