<svg width="2000" height="1000" viewBox="0 0 2000 1000" fill="none" xmlns="http://www.w3.org/2000/svg">
<g clip-path="url(#clip0_863_313)">
<path d="M-227.941 375.796C-227.941 375.796 51.9216 321.499 181.048 514.171C310.174 706.843 450.379 767.424 654.65 787.605C858.92 807.785 942.314 1051.44 942.314 1051.44" stroke="#FFF5E2" stroke-width="56.3039"/>
<path d="M-294.96 491.882C-294.96 491.882 -15.0979 437.584 114.028 630.256C243.155 822.928 383.36 883.51 587.63 903.69C791.901 923.871 875.294 1167.53 875.294 1167.53" stroke="#FFF5E2" stroke-width="56.3039"/>
<path d="M-361.984 607.967C-361.984 607.967 -82.1213 553.67 47.005 746.342C176.131 939.014 316.336 999.595 520.607 1019.78C724.877 1039.96 808.271 1283.61 808.271 1283.61" stroke="#FFF5E2" stroke-width="56.3039"/>
<path d="M-429.005 724.051C-429.005 724.051 -149.143 669.753 -20.0165 862.425C109.11 1055.1 249.315 1115.68 453.585 1135.86C657.856 1156.04 741.249 1399.7 741.249 1399.7" stroke="#FFF5E2" stroke-width="56.3039"/>
<circle cx="1621.5" cy="500.5" r="189.5" fill="#9F7C00"/>
<path d="M1687.98 475.277V525.13C1687.98 533.293 1683.61 540.873 1676.54 545.027L1633.24 570.027C1626.17 574.108 1617.43 574.108 1610.28 570.027L1566.99 545.027C1559.92 540.946 1555.55 533.365 1555.55 525.13V475.277C1555.55 467.114 1559.92 459.533 1566.99 455.379L1610.28 430.38C1617.35 426.298 1626.1 426.298 1633.24 430.38L1676.54 455.379C1683.61 459.533 1687.98 467.041 1687.98 475.277Z" stroke="#FFF5E2" stroke-width="10.9327" stroke-linecap="round" stroke-linejoin="round"/>
<path d="M1621.8 492.913C1631.18 492.913 1638.78 485.31 1638.78 475.931C1638.78 466.552 1631.18 458.949 1621.8 458.949C1612.42 458.949 1604.81 466.552 1604.81 475.931C1604.81 485.31 1612.42 492.913 1621.8 492.913Z" stroke="#FFF5E2" stroke-width="10.9327" stroke-linecap="round" stroke-linejoin="round"/>
<path d="M1650.95 534.166C1650.95 521.047 1637.9 510.406 1621.8 510.406C1605.69 510.406 1592.64 521.047 1592.64 534.166" stroke="#FFF5E2" stroke-width="10.9327" stroke-linecap="round" stroke-linejoin="round"/>
</g>
<defs>
<clipPath id="clip0_863_313">
<rect width="2000" height="1000" fill="white"/>
</clipPath>
</defs>
</svg>
