<svg width="2000" height="1000" viewBox="0 0 2000 1000" fill="none" xmlns="http://www.w3.org/2000/svg">
<g clip-path="url(#clip0_887_374)">
<path d="M-227.911 375.818C-227.911 375.818 51.9509 321.521 181.077 514.193C310.204 706.865 450.408 767.446 654.679 787.627C858.949 807.807 942.343 1051.47 942.343 1051.47" stroke="#C8B1A4" stroke-width="56.3039"/>
<path d="M-294.943 491.917C-294.943 491.917 -15.0803 437.619 114.046 630.291C243.172 822.963 383.377 883.545 587.648 903.725C791.918 923.906 875.312 1167.56 875.312 1167.56" stroke="#C8B1A4" stroke-width="56.3039"/>
<path d="M-361.97 608.015C-361.97 608.015 -82.1077 553.717 47.0187 746.39C176.145 939.062 316.35 999.643 520.62 1019.82C724.891 1040 808.285 1283.66 808.285 1283.66" stroke="#C8B1A4" stroke-width="56.3039"/>
<path d="M-429.001 724.114C-429.001 724.114 -149.139 669.816 -20.0126 862.488C109.114 1055.16 249.319 1115.74 453.589 1135.92C657.86 1156.1 741.253 1399.76 741.253 1399.76" stroke="#C8B1A4" stroke-width="56.3039"/>
<circle cx="1621.5" cy="500.5" r="189.5" fill="#AEEABB"/>
<path d="M1548.91 573.087H1694.68" stroke="#082830" stroke-width="10.9327" stroke-linecap="round" stroke-linejoin="round"/>
<path d="M1621.8 456.472C1585.58 456.472 1556.2 485.845 1556.2 522.068V573.088H1687.4V522.068C1687.4 485.845 1658.02 456.472 1621.8 456.472Z" stroke="#082830" stroke-width="10.9327" stroke-linecap="round" stroke-linejoin="round"/>
<path d="M1621.8 427.318V434.607" stroke="#082830" stroke-width="10.9327" stroke-linecap="round" stroke-linejoin="round"/>
<path d="M1563.49 441.895L1570.78 449.183" stroke="#082830" stroke-width="10.9327" stroke-linecap="round" stroke-linejoin="round"/>
<path d="M1680.1 441.895L1672.82 449.183" stroke="#082830" stroke-width="10.9327" stroke-linecap="round" stroke-linejoin="round"/>
</g>
<defs>
<clipPath id="clip0_887_374">
<rect width="2000" height="1000" fill="white"/>
</clipPath>
</defs>
</svg>
