<svg width="2000" height="1000" viewBox="0 0 2000 1000" fill="none" xmlns="http://www.w3.org/2000/svg">
<g clip-path="url(#clip0_863_329)">
<path d="M-227.911 375.818C-227.911 375.818 51.9509 321.521 181.077 514.193C310.204 706.865 450.408 767.446 654.679 787.627C858.949 807.807 942.343 1051.47 942.343 1051.47" stroke="#FFF5E2" stroke-width="56.3039"/>
<path d="M-294.941 491.917C-294.941 491.917 -15.0784 437.619 114.048 630.291C243.174 822.963 383.379 883.545 587.65 903.725C791.92 923.906 875.314 1167.56 875.314 1167.56" stroke="#FFF5E2" stroke-width="56.3039"/>
<path d="M-361.97 608.015C-361.97 608.015 -82.1077 553.717 47.0187 746.39C176.145 939.062 316.35 999.643 520.62 1019.82C724.891 1040 808.285 1283.66 808.285 1283.66" stroke="#FFF5E2" stroke-width="56.3039"/>
<path d="M-428.999 724.114C-428.999 724.114 -149.137 669.816 -20.0106 862.488C109.116 1055.16 249.321 1115.74 453.591 1135.92C657.862 1156.1 741.255 1399.76 741.255 1399.76" stroke="#FFF5E2" stroke-width="56.3039"/>
<circle cx="1621.5" cy="500.5" r="189.5" fill="#9F7C00"/>
<path d="M1548.91 573.087H1694.68" stroke="#FFF5E2" stroke-width="10.9327" stroke-linecap="round" stroke-linejoin="round"/>
<path d="M1621.8 456.472C1585.58 456.472 1556.2 485.845 1556.2 522.068V573.088H1687.4V522.068C1687.4 485.845 1658.02 456.472 1621.8 456.472Z" stroke="#FFF5E2" stroke-width="10.9327" stroke-linecap="round" stroke-linejoin="round"/>
<path d="M1621.8 427.318V434.607" stroke="#FFF5E2" stroke-width="10.9327" stroke-linecap="round" stroke-linejoin="round"/>
<path d="M1563.49 441.895L1570.78 449.183" stroke="#FFF5E2" stroke-width="10.9327" stroke-linecap="round" stroke-linejoin="round"/>
<path d="M1680.1 441.895L1672.82 449.183" stroke="#FFF5E2" stroke-width="10.9327" stroke-linecap="round" stroke-linejoin="round"/>
</g>
<defs>
<clipPath id="clip0_863_329">
<rect width="2000" height="1000" fill="white"/>
</clipPath>
</defs>
</svg>
