<svg width="2000" height="1000" viewBox="0 0 2000 1000" fill="none" xmlns="http://www.w3.org/2000/svg">
<g clip-path="url(#clip0_887_358)">
<path d="M-227.943 375.796C-227.943 375.796 51.9197 321.499 181.046 514.171C310.172 706.843 450.377 767.424 654.648 787.605C858.918 807.785 942.312 1051.44 942.312 1051.44" stroke="#C8B1A4" stroke-width="56.3039"/>
<path d="M-294.962 491.882C-294.962 491.882 -15.0999 437.584 114.026 630.256C243.153 822.928 383.358 883.51 587.628 903.69C791.899 923.871 875.292 1167.53 875.292 1167.53" stroke="#C8B1A4" stroke-width="56.3039"/>
<path d="M-361.986 607.967C-361.986 607.967 -82.1233 553.67 47.0031 746.342C176.129 939.014 316.334 999.595 520.605 1019.78C724.875 1039.96 808.269 1283.61 808.269 1283.61" stroke="#C8B1A4" stroke-width="56.3039"/>
<path d="M-429.009 724.051C-429.009 724.051 -149.147 669.753 -20.0204 862.425C109.106 1055.1 249.311 1115.68 453.581 1135.86C657.852 1156.04 741.245 1399.7 741.245 1399.7" stroke="#C8B1A4" stroke-width="56.3039"/>
<circle cx="1621.5" cy="500.5" r="189.5" fill="#AEEABB"/>
<path d="M1559.86 562.154C1565.91 568.204 1575.67 568.204 1581.72 562.154L1676.47 467.404C1682.52 461.355 1682.52 451.588 1676.47 445.539C1670.42 439.49 1660.66 439.49 1654.61 445.539L1559.86 540.289C1553.81 546.338 1553.81 556.105 1559.86 562.154Z" stroke="#082830" stroke-width="10.9327" stroke-linecap="round" stroke-linejoin="round"/>
<path d="M1665.62 478.266L1643.75 456.401" stroke="#082830" stroke-width="10.9327" stroke-linecap="round" stroke-linejoin="round"/>
<path d="M1596.29 430.525L1607.22 427.318L1604.01 438.251L1607.22 449.184L1596.29 445.977L1585.36 449.184L1588.56 438.251L1585.36 427.318L1596.29 430.525Z" stroke="#082830" stroke-width="7.28846" stroke-linecap="round" stroke-linejoin="round"/>
<path d="M1567.14 474.256L1578.07 471.049L1574.86 481.982L1578.07 492.914L1567.14 489.707L1556.2 492.914L1559.41 481.982L1556.2 471.049L1567.14 474.256Z" stroke="#082830" stroke-width="7.28846" stroke-linecap="round" stroke-linejoin="round"/>
<path d="M1676.46 510.698L1687.39 507.491L1684.19 518.424L1687.39 529.357L1676.46 526.15L1665.53 529.357L1668.73 518.424L1665.53 507.491L1676.46 510.698Z" stroke="#082830" stroke-width="7.28846" stroke-linecap="round" stroke-linejoin="round"/>
</g>
<defs>
<clipPath id="clip0_887_358">
<rect width="2000" height="1000" fill="white"/>
</clipPath>
</defs>
</svg>
