<svg width="2000" height="1000" viewBox="0 0 2000 1000" fill="none" xmlns="http://www.w3.org/2000/svg">
<g clip-path="url(#clip0_863_288)">
<path d="M-227.941 375.796C-227.941 375.796 51.9216 321.499 181.048 514.171C310.174 706.843 450.379 767.424 654.65 787.605C858.92 807.785 942.314 1051.44 942.314 1051.44" stroke="#FFF5E2" stroke-width="56.3039"/>
<path d="M-294.96 491.882C-294.96 491.882 -15.0979 437.584 114.028 630.256C243.155 822.928 383.36 883.51 587.63 903.69C791.901 923.871 875.294 1167.53 875.294 1167.53" stroke="#FFF5E2" stroke-width="56.3039"/>
<path d="M-361.984 607.967C-361.984 607.967 -82.1213 553.67 47.005 746.342C176.131 939.014 316.336 999.595 520.607 1019.78C724.877 1039.96 808.271 1283.61 808.271 1283.61" stroke="#FFF5E2" stroke-width="56.3039"/>
<path d="M-429.005 724.051C-429.005 724.051 -149.143 669.753 -20.0165 862.425C109.11 1055.1 249.315 1115.68 453.585 1135.86C657.856 1156.04 741.249 1399.7 741.249 1399.7" stroke="#FFF5E2" stroke-width="56.3039"/>
<circle cx="1621.5" cy="500.5" r="189.5" fill="#9F7C00"/>
<path d="M1559.84 562.154C1565.89 568.204 1575.66 568.204 1581.71 562.154L1676.46 467.404C1682.51 461.355 1682.51 451.588 1676.46 445.539C1670.41 439.49 1660.64 439.49 1654.59 445.539L1559.84 540.289C1553.79 546.338 1553.79 556.105 1559.84 562.154Z" stroke="#FFF5E2" stroke-width="10.9327" stroke-linecap="round" stroke-linejoin="round"/>
<path d="M1665.6 478.266L1643.73 456.401" stroke="#FFF5E2" stroke-width="10.9327" stroke-linecap="round" stroke-linejoin="round"/>
<path d="M1596.29 430.525L1607.22 427.318L1604.01 438.251L1607.22 449.184L1596.29 445.977L1585.36 449.184L1588.56 438.251L1585.36 427.318L1596.29 430.525Z" stroke="#FFF5E2" stroke-width="7.28846" stroke-linecap="round" stroke-linejoin="round"/>
<path d="M1567.13 474.256L1578.07 471.049L1574.86 481.982L1578.07 492.914L1567.13 489.707L1556.2 492.914L1559.41 481.982L1556.2 471.049L1567.13 474.256Z" stroke="#FFF5E2" stroke-width="7.28846" stroke-linecap="round" stroke-linejoin="round"/>
<path d="M1676.46 510.698L1687.39 507.491L1684.19 518.424L1687.39 529.357L1676.46 526.15L1665.53 529.357L1668.73 518.424L1665.53 507.491L1676.46 510.698Z" stroke="#FFF5E2" stroke-width="7.28846" stroke-linecap="round" stroke-linejoin="round"/>
</g>
<defs>
<clipPath id="clip0_863_288">
<rect width="2000" height="1000" fill="white"/>
</clipPath>
</defs>
</svg>
